<svg width="570" height="680" viewBox="0 0 570 680" fill="none" xmlns="http://www.w3.org/2000/svg">
<path d="M42.9782 318.655C54.5705 322.745 61.8703 323.92 67.4937 323.283C72.1647 322.754 75.5345 320.937 78.6338 319.265C79.2751 318.919 79.9048 318.579 80.5321 318.259C84.2145 316.376 88.7986 314.491 97.1716 314.042C105.285 313.607 117.009 314.521 134.911 318.221L134.911 406.385H45.1528C11.1078 381.269 0.954805 355.076 3.73236 337.828C5.12591 329.175 9.73991 322.656 16.3888 319.13C23.0624 315.592 32.2055 314.853 42.9782 318.655Z" fill="#FF7F50" stroke="#442407" stroke-width="6.58921" stroke-miterlimit="3.99933"/>
<path d="M45.2886 261.809C63.3614 254.644 73.5548 252.557 85.4309 253.203C91.4738 253.531 98.027 254.573 106.383 256.128C109.194 256.65 112.213 257.232 115.477 257.861C121.154 258.955 127.571 260.191 134.911 261.507V335.484H44.5246C33.1262 332.269 25.5636 326.91 20.9969 320.698C16.3777 314.416 14.6383 307.013 15.3353 299.471C16.7396 284.273 28.0683 268.636 45.2886 261.809Z" fill="#FF7F50" stroke="#442407" stroke-width="6.58921" stroke-miterlimit="3.99933"/>
<path d="M131.938 232.154C187.397 194.178 235.855 218.61 253.824 240.564C264.137 261.971 265.289 278.657 262.304 295.468C260.788 304.012 258.192 312.637 255.085 322.043C254.182 324.776 253.234 327.58 252.26 330.464C250.15 336.704 247.915 343.316 245.739 350.384L123.627 341.365C108.536 312.97 100.682 292.767 101.292 276.293C101.896 259.998 110.866 246.644 131.938 232.154Z" fill="#FF7F50" stroke="#442407" stroke-width="6.58921" stroke-miterlimit="3.99933"/>
<path d="M43.958 302.529H118.245L250.383 320.14C258.692 313.39 262.432 308.423 264.854 298.637C264.854 338.338 264.854 348.082 264.854 388.294H43.958V302.529Z" fill="#FF7F50"/>
<rect x="259.681" y="291.776" width="6.58921" height="84.6361" fill="#442407"/>
<path d="M40.2138 396.769L39.7222 397.576L39.7326 398.52L40.6633 482.816L40.7763 493.058L46.6555 484.671C50.9559 478.536 60.9873 472.297 75.7079 466.894C90.2503 461.557 108.781 457.244 129.332 454.582C170.469 449.254 219.227 450.597 259.685 463.183L264.008 464.528L263.958 460.001L263.508 419.307L263.059 378.612L263.038 376.726L261.401 375.789C231.823 358.858 182.569 354.424 138.214 358.778C115.948 360.964 94.6693 365.385 77.4256 371.704C60.3456 377.962 46.5891 386.31 40.2138 396.769Z" fill="#FF7F50" stroke="#442407" stroke-width="6.58921" stroke-miterlimit="3.99933"/>
<path d="M24.8184 290.329C45.3583 261.376 62.1511 256.691 101.59 260.381C92.8633 281.485 98.9721 293.311 109.049 302.279L43.7304 338.702C23.6426 325.73 16.6644 313.095 24.8184 290.329Z" fill="#FF7F50"/>
<path d="M149.191 235.09H243.323C261.654 245.11 269.208 306.361 243.323 329.222H149.191V235.09Z" fill="#FF7F50"/>
<path d="M139.862 305.068C141.016 331.587 143.043 345.005 153.177 354.952L139.862 355.863C134.948 350.692 137.45 337.792 139.862 305.068Z" fill="#4C3016" fill-opacity="0.53"/>
<path d="M139.794 305.265C143.897 331.823 147.112 345.215 156.299 354.869L147.899 356.91C143.402 351.881 141.834 338.159 139.794 305.265Z" fill="#442407"/>
<path d="M88.2504 331.693C86.4166 347.566 86.4585 352.179 92.8923 363.769L81.6182 366.885C79.1773 360.013 81.2305 351.487 88.2504 331.693Z" fill="#4C3016" fill-opacity="0.53"/>
<path d="M88.0493 331.46C90.3082 347.359 93.1338 354.861 102.303 364.504L90.5746 367.359C86.4668 361.293 86.2869 352.483 88.0493 331.46Z" fill="#442407"/>
<path d="M253.99 331.947C244.054 344.563 240.794 350.722 240.155 364.013L229.241 360.466C230.789 353.307 237.571 345.194 253.99 331.947Z" fill="#4C3016" fill-opacity="0.53"/>
<path d="M254.321 331.559C247.602 346.144 245.91 353.98 248.388 367.054L236.985 363.095C236.821 355.772 241.445 348.271 254.321 331.559Z" fill="#442407"/>
<path d="M253.081 317.724C261.038 310.621 262.091 307.044 264.86 298.677L265.773 309.65C264.277 310.922 266.673 311.855 253.081 317.724Z" fill="#4C3016" fill-opacity="0.53"/>
<path d="M17.4144 322.006C27.2678 330.433 32.0394 335.004 43.4039 338.698C-2.24976 343.509 50.06 382.07 50.06 382.07C50.06 382.07 39.6443 391.132 37.2763 395.642C27.4352 392.374 16.0513 379.819 9.13664 357.822C3.12492 338.698 5.1697 331.102 17.4144 322.006Z" fill="#4C3016" fill-opacity="0.53"/>
<path d="M42.5612 398.563C52.6115 385.569 61.4651 380.729 79.7247 373.971L79.7324 462.304C61.306 468.367 53.947 473.309 43.474 483.502L42.5612 398.563Z" fill="#4C3016" fill-opacity="0.53"/>
<path d="M223.629 365.752C237.709 368.473 245.703 371.186 260.191 378.774L260.977 460.017C246.463 455.911 238.286 454.092 223.629 451.7L223.629 365.752Z" fill="#4C3016" fill-opacity="0.53"/>
<path d="M546.237 491.838C546.237 460.002 539.903 428.478 527.597 399.066C515.29 369.653 497.253 342.929 474.514 320.418C451.776 297.906 424.781 280.049 395.071 267.866C365.361 255.683 333.519 249.413 301.361 249.413L301.361 491.838H546.237Z" fill="#442407"/>
<path d="M301.361 499.313H551.692C561.803 499.313 569.999 507.509 569.999 517.62C569.999 527.731 561.803 535.927 551.692 535.927H301.361V499.313Z" fill="#442407"/>
<path d="M301.361 249.413C304.452 249.413 307.512 248.804 310.367 247.622C313.222 246.439 315.816 244.705 318.001 242.52C320.187 240.335 321.92 237.741 323.103 234.886C324.285 232.03 324.894 228.97 324.894 225.88C324.894 222.79 324.285 219.729 323.103 216.874C321.92 214.019 320.187 211.425 318.001 209.24C315.816 207.054 313.222 205.321 310.367 204.138C307.512 202.956 304.452 202.347 301.361 202.347V212.624C303.102 212.624 304.826 212.966 306.434 213.633C308.043 214.299 309.504 215.275 310.735 216.506C311.966 217.737 312.942 219.199 313.609 220.807C314.275 222.415 314.618 224.139 314.618 225.88C314.618 227.621 314.275 229.345 313.609 230.953C312.942 232.561 311.966 234.023 310.735 235.254C309.504 236.485 308.043 237.461 306.434 238.127C304.826 238.794 303.102 239.136 301.361 239.136V249.413Z" fill="#442407"/>
<path d="M380.293 285.484C456.996 321.761 482.551 356.514 501.97 441.471L503.06 442.869C482.092 370.818 456.158 335.553 380.293 285.484Z" fill="#FF7F50"/>
<rect x="276.378" y="197.203" width="14.6286" height="174.644" fill="#442407"/>
<path d="M270.191 371.847H297.194V522.426C297.194 529.882 291.149 535.927 283.693 535.927C276.236 535.927 270.191 529.882 270.191 522.426V371.847Z" fill="#442407"/>
<path d="M224.341 79.4687C224.341 71.5697 230.745 65.1663 238.644 65.1663H328.741C336.64 65.1663 343.043 71.5697 343.043 79.4687H224.341Z" fill="#442407"/>
<path d="M224.341 79.4687H245.51V199.523C238.848 199.523 233.307 194.397 232.789 187.755L224.341 79.4687Z" fill="#442407"/>
<path d="M343.043 79.4687H321.874V199.523C328.537 199.523 334.078 194.397 334.596 187.755L343.043 79.4687Z" fill="#442407"/>
<rect x="277.046" y="79.4687" width="13.2921" height="120.054" fill="#442407"/>
<rect x="254.633" y="79.4687" width="13.2921" height="120.054" fill="#442407"/>
<rect x="299.46" y="79.4687" width="13.2921" height="120.054" fill="#442407"/>
<rect x="245.51" y="187.416" width="76.3638" height="12.1068" fill="#442407"/>
<path d="M266.271 499.313H18.3073C8.19659 499.313 0.000244141 507.509 0.000244141 517.62C0.000244141 527.731 8.19659 535.927 18.3073 535.927H266.271V499.313Z" fill="#442407"/>
</svg>
